# WaveFront *.obj file (generated by Cheetah3D)

mtllib Gear15x1.mtl

g Polygonobject
v 0.124049 0.654704 0.000000
v 0.186489 0.445684 -0.000000
v -0.010909 0.483004 -0.000000
v 0.504966 -0.434781 0.000000
v -0.010909 0.483004 0.100003
v 0.124049 0.654704 0.100007
v -0.152968 0.648557 0.000000
v 0.351642 0.331300 -0.000000
v -0.206422 0.436809 -0.000000
v 0.423749 -0.232054 -0.000000
v 0.423749 -0.232054 0.100003
v -0.152968 0.648557 0.100007
v -0.403535 0.530269 0.000000
v 0.504966 -0.434781 0.100007
v -0.366242 0.315086 -0.000000
v -0.206422 0.436809 0.100003
v -0.366242 0.315086 0.100003
v -0.403535 0.530269 0.100007
v -0.584327 0.320292 0.000000
v 0.569545 0.345896 0.100007
v -0.462736 0.138881 -0.000000
v 0.638151 -0.191805 0.000000
v -0.462736 0.138881 0.100003
v -0.584327 0.320292 0.100007
v -0.664084 0.054934 0.000000
v 0.351642 0.331300 0.100003
v -0.479218 -0.061337 -0.000000
v 0.481499 -0.039638 -0.000000
v -0.479218 -0.061337 0.100003
v -0.664084 0.054934 0.100007
v -0.629015 -0.219922 0.000000
v 0.638151 -0.191805 0.100007
v -0.412839 -0.250950 -0.000000
v 0.481499 -0.039638 0.100003
v -0.412839 -0.250950 0.100003
v -0.629015 -0.219922 0.100007
v -0.485183 -0.456752 0.000000
v 0.186489 0.445684 0.100003
v -0.275077 -0.397171 -0.000000
v 0.660994 0.084337 0.000000
v -0.275077 -0.397171 0.100003
v -0.485183 -0.456752 0.100007
v -0.257459 -0.614606 0.000000
v 0.379616 0.547647 0.000000
v -0.089751 -0.474718 -0.000000
v 0.455993 0.159632 -0.000000
v -0.089751 -0.474718 0.100003
v -0.257459 -0.614606 0.100007
v 0.014783 -0.666188 0.000000
v 0.660994 0.084337 0.100007
v 0.111093 -0.470181 -0.000000
v 0.455993 0.159632 0.100003
v 0.111093 -0.470181 0.100003
v 0.014783 -0.666188 0.100007
v 0.284468 -0.602581 0.000000
v 0.379616 0.547647 0.100007
v 0.292729 -0.384346 -0.000000
v 0.569545 0.345896 0.000000
v 0.292729 -0.384346 0.100003
v 0.284468 -0.602581 0.100007
v -0.027850 -0.147392 -0.000000
v -0.003403 0.149961 0.100000
v 0.131572 -0.072034 0.100000
v 0.034507 -0.145977 -0.000000
v -0.143673 0.043104 0.100000
v 0.090898 -0.119321 -0.000000
v 0.090898 -0.119321 0.100000
v 0.131572 -0.072034 -0.000000
v -0.113720 0.097815 0.100000
v 0.149496 -0.012291 -0.000000
v -0.064104 0.135612 0.100000
v 0.141570 0.049577 -0.000000
v 0.034507 -0.145977 0.100000
v 0.109166 0.102873 -0.000000
v -0.027850 -0.147392 0.100000
v 0.057886 0.138381 -0.000000
v 0.057886 0.138381 0.100000
v -0.003403 0.149961 -0.000000
v -0.128169 -0.077928 0.100000
v -0.064104 0.135612 -0.000000
v 0.109166 0.102873 0.100000
v -0.113720 0.097815 -0.000000
v -0.085392 -0.123322 0.100000
v -0.143673 0.043104 -0.000000
v 0.141570 0.049577 0.100000
v -0.148784 -0.019060 -0.000000
v -0.148784 -0.019060 0.100000
v -0.128169 -0.077928 -0.000000
v 0.149496 -0.012291 0.100000
v -0.085392 -0.123322 -0.000000

vt 0.000000 1.000000
vt 1.000000 1.000000
vt 1.000000 0.000000
vt 0.000000 0.000000
vt 0.500000 0.344720
vt 0.500000 0.000000
vt 0.703368 0.043227
vt 0.563158 0.358145
vt 0.871572 0.165435
vt 0.615395 0.396098
vt 0.975528 0.345492
vt 0.647680 0.452016
vt 0.997261 0.552264
vt 0.654429 0.516231
vt 0.933013 0.750000
vt 0.634476 0.577640
vt 0.793893 0.904509
vt 0.591271 0.625624
vt 0.603956 0.989074
vt 0.532284 0.651886
vt 0.396044 0.989074
vt 0.467716 0.651886
vt 0.206107 0.904509
vt 0.408729 0.625624
vt 0.066987 0.750000
vt 0.365524 0.577640
vt 0.002739 0.552264
vt 0.345571 0.516231
vt 0.024472 0.345491
vt 0.352320 0.452016
vt 0.128428 0.165435
vt 0.384605 0.396098
vt 0.296632 0.043227
vt 0.436842 0.358145
vt 0.066667 1.000000
vt 0.066667 0.000000
vt 0.133333 1.000000
vt 0.133333 0.000000
vt 0.200000 1.000000
vt 0.200000 0.000000
vt 0.266667 1.000000
vt 0.266667 0.000000
vt 0.333333 1.000000
vt 0.333333 0.000000
vt 0.400000 1.000000
vt 0.400000 0.000000
vt 0.466667 1.000000
vt 0.466667 0.000000
vt 0.533333 1.000000
vt 0.533333 0.000000
vt 0.600000 1.000000
vt 0.600000 0.000000
vt 0.666667 1.000000
vt 0.666667 0.000000
vt 0.733333 1.000000
vt 0.733333 0.000000
vt 0.800000 1.000000
vt 0.800000 0.000000
vt 0.866667 1.000000
vt 0.866667 0.000000
vt 0.933333 1.000000
vt 0.933333 0.000000

vn 0.809395 0.587265 -0.000000
vn 0.958161 0.286230 0.000000
vn -0.000003 -0.000017 1.000000
vn 0.000000 0.000000 -1.000000
vn -0.386004 -0.922497 0.000000
vn 0.022581 -0.999745 0.000000
vn -0.786204 0.617968 0.000000
vn -0.538227 0.842800 -0.000000
vn 0.500557 0.865704 0.000000
vn 0.758903 0.651204 0.000000
vn 0.427262 -0.904128 0.000000
vn -0.969583 0.244764 0.000000
vn -0.834492 0.551020 0.000000
vn 0.105168 0.994455 -0.000000
vn 0.428424 0.903578 0.000000
vn 0.758065 -0.652179 0.000000
vn -0.985312 -0.170762 0.000000
vn -0.986467 0.163963 -0.000000
vn -0.308405 0.951255 0.000000
vn 0.023867 0.999715 0.000000
vn 0.957792 -0.287463 0.000000
vn -0.830672 -0.556761 0.000000
vn -0.967872 -0.251445 0.000000
vn -0.668653 0.743575 -0.000000
vn -0.384818 0.922993 0.000000
vn 0.000017 -0.000001 1.000000
vn -0.000000 0.000000 -1.000000
vn 0.991908 0.126959 0.000000
vn -0.532402 -0.846492 0.000000
vn -0.781923 -0.623375 0.000000
vn -0.913284 0.407324 0.000000
vn -0.726963 0.686676 0.000000
vn 0.854514 0.519428 0.000000
vn -0.142074 -0.989856 0.000000
vn -0.460773 -0.887518 0.000000
vn -1.000000 0.000643 0.000000
vn -0.943410 0.331628 0.000000
vn -0.000000 -0.000000 -1.000000
vn 0.569367 0.822083 0.000000
vn 0.272820 -0.962065 0.000000
vn -0.059951 -0.998201 0.000000
vn -0.913807 -0.406149 0.000000
vn -0.996733 -0.080762 0.000000
vn 0.185771 0.982593 0.000000
vn 0.640540 -0.767925 0.000000
vn 0.351237 -0.936286 0.000000
vn -0.669608 -0.742715 0.000000
vn -0.877712 -0.479189 0.000000
vn -0.000000 0.000017 1.000000
vn -0.229946 0.973203 0.000000
vn 0.897506 -0.441002 0.000000
vn 0.701693 -0.712479 0.000000
vn -0.309628 -0.950858 0.000000
vn -0.606926 -0.794758 0.000000
vn 0.000000 -0.000000 -1.000000
vn -0.605904 0.795538 0.000000
vn 0.999284 -0.037827 0.000000
vn 0.930820 -0.365477 0.000000
vn 0.103889 -0.994589 0.000000
vn -0.231198 -0.972907 0.000000
vn -0.877095 0.480317 0.000000
vn 0.928277 0.371889 0.000000
vn 0.999000 0.044718 0.000000
vn 0.499443 -0.866347 0.000000
vn 0.184507 -0.982831 0.000000
vn -0.996629 0.082045 0.000000
vn 0.696763 0.717302 0.000000
vn 0.894443 0.447182 0.000000
vn 0.808639 -0.588305 0.000000
vn 0.568309 -0.822815 0.000000
vn -0.943836 -0.330414 0.000000
vn 0.344772 0.938687 0.000000
vn 0.635229 0.772324 0.000000
vn 0.978014 -0.208541 0.000000
vn 0.853845 -0.520527 0.000000
vn -0.727846 -0.685741 0.000000
vn -0.066834 0.997764 0.000000
vn 0.266178 0.963924 -0.000000
vn 0.978281 0.207283 0.000000
vn 0.991744 -0.128234 0.000000
vn -0.466883 0.884319 0.000000
vn -0.148897 0.988853 0.000000
vn 0.000002 0.000010 1.000000
vn 0.102469 -0.994736 0.000000
vn -0.058110 -0.998310 0.000000
vn 0.498206 -0.867059 0.000000
vn 0.352963 -0.935637 0.000000
vn 0.807798 -0.589459 0.000000
vn 0.703006 -0.711184 0.000000
vn 0.977715 -0.209937 0.000000
vn 0.931492 -0.363761 0.000000
vn 0.978576 0.205886 0.000000
vn 0.998915 0.046560 0.000000
vn 0.810232 0.586109 0.000000
vn 0.893617 0.448830 -0.000000
vn 0.501792 0.864988 -0.000000
vn 0.633805 0.773493 -0.000000
vn 0.106588 0.994303 -0.000000
vn 0.264401 0.964413 -0.000000
vn -0.307047 0.951694 -0.000000
vn -0.150720 0.988577 0.000000
vn -0.667590 0.744529 0.000000
vn -0.539780 0.841806 -0.000000
vn -0.912701 0.408627 -0.000000
vn -0.835507 0.549480 -0.000000
vn -0.999998 0.002071 -0.000000
vn -0.986767 0.162144 0.000000
vn -0.914386 -0.404844 0.000000
vn -0.967406 -0.253229 0.000000
vn -0.670668 -0.741758 0.000000
vn -0.780773 -0.624815 0.000000
vn -0.310986 -0.950415 0.000000
vn -0.459136 -0.888366 0.000000

usemtl default
f 2/4/1 1/3/2 6/2/2 38/1/1
f 5/1/3 38/1/3 6/1/3
f 2/4/4 3/4/4 1/3/4
f 38/2/5 5/1/6 3/4/6 2/3/5
f 1/4/7 3/3/8 5/2/8 6/1/7
f 3/4/9 7/3/10 12/2/10 5/1/9
f 16/1/3 5/1/3 12/1/3
f 3/4/4 9/4/4 7/3/4
f 5/2/6 16/1/11 9/4/11 3/3/6
f 7/4/12 9/3/13 16/2/13 12/1/12
f 9/4/14 13/3/15 18/2/15 16/1/14
f 17/1/3 16/1/3 18/1/3
f 9/4/4 15/4/4 13/3/4
f 16/2/11 17/1/16 15/4/16 9/3/11
f 13/4/17 15/3/18 17/2/18 18/1/17
f 15/4/19 19/3/20 24/2/20 17/1/19
f 23/1/3 17/1/3 24/1/3
f 15/4/4 21/4/4 19/3/4
f 17/2/16 23/1/21 21/4/21 15/3/16
f 19/4/22 21/3/23 23/2/23 24/1/22
f 21/4/24 25/3/25 30/2/25 23/1/24
f 29/1/26 23/1/26 30/1/26
f 21/4/27 27/4/27 25/3/27
f 23/2/21 29/1/28 27/4/28 21/3/21
f 25/4/29 27/3/30 29/2/30 30/1/29
f 27/4/31 31/3/32 36/2/32 29/1/31
f 35/1/26 29/1/26 36/1/26
f 27/4/27 33/4/27 31/3/27
f 29/2/28 35/1/33 33/4/33 27/3/28
f 31/4/34 33/3/35 35/2/35 36/1/34
f 33/4/36 37/3/37 42/2/37 35/1/36
f 41/1/26 35/1/26 42/1/26
f 33/4/38 39/4/38 37/3/38
f 35/2/33 41/1/39 39/4/39 33/3/33
f 37/4/40 39/3/41 41/2/41 42/1/40
f 39/4/42 43/3/43 48/2/43 41/1/42
f 47/1/26 41/1/26 48/1/26
f 39/4/38 45/4/38 43/3/38
f 41/2/39 47/1/44 45/4/44 39/3/39
f 43/4/45 45/3/46 47/2/46 48/1/45
f 45/4/47 49/3/48 54/2/48 47/1/47
f 53/1/49 47/1/26 54/1/49
f 45/4/38 51/4/4 49/3/4
f 47/2/44 53/1/50 51/4/50 45/3/44
f 49/4/51 51/3/52 53/2/52 54/1/51
f 51/4/53 55/3/54 60/2/54 53/1/53
f 59/1/49 53/1/49 60/1/49
f 51/4/55 57/4/55 55/3/55
f 53/2/50 59/1/56 57/4/56 51/3/50
f 55/4/57 57/3/58 59/2/58 60/1/57
f 57/4/59 4/3/60 14/2/60 59/1/59
f 11/1/49 59/1/49 14/1/49
f 57/4/55 10/4/55 4/3/55
f 59/2/56 11/1/61 10/4/61 57/3/56
f 4/4/62 10/3/63 11/2/63 14/1/62
f 10/4/64 22/3/65 32/2/65 11/1/64
f 34/1/49 11/1/49 32/1/49
f 10/4/55 28/4/55 22/3/55
f 11/2/61 34/1/66 28/4/66 10/3/61
f 22/4/67 28/3/68 34/2/68 32/1/67
f 28/4/69 40/3/70 50/2/70 34/1/69
f 52/1/3 34/1/49 50/1/3
f 28/4/55 46/4/4 40/3/55
f 34/2/66 52/1/71 46/4/71 28/3/66
f 40/4/72 46/3/73 52/2/73 50/1/72
f 46/4/74 58/3/75 20/2/75 52/1/74
f 26/1/3 52/1/3 20/1/3
f 46/4/4 8/4/4 58/3/4
f 52/2/71 26/1/76 8/4/76 46/3/71
f 58/4/77 8/3/78 26/2/78 20/1/77
f 8/4/79 44/3/80 56/2/80 26/1/79
f 38/1/3 26/1/3 56/1/3
f 8/4/4 2/4/4 44/3/4
f 26/2/76 38/1/5 2/4/5 8/3/76
f 44/4/81 2/3/82 38/2/82 56/1/81
f 64/8/55 51/7/55 45/6/38 61/5/38
f 66/10/55 57/9/55 51/7/55 64/8/55
f 68/12/55 10/11/55 57/9/55 66/10/55
f 70/14/55 28/13/55 10/11/55 68/12/55
f 72/16/4 46/15/4 28/13/55 70/14/55
f 74/18/4 8/17/4 46/15/4 72/16/4
f 76/20/4 2/19/4 8/17/4 74/18/4
f 78/22/27 3/21/27 2/19/4 76/20/4
f 80/24/27 9/23/27 3/21/27 78/22/27
f 82/26/27 15/25/27 9/23/27 80/24/27
f 84/28/27 21/27/27 15/25/27 82/26/27
f 86/30/38 27/29/38 21/27/27 84/28/27
f 88/32/38 33/31/38 27/29/38 86/30/38
f 90/34/38 39/33/38 33/31/38 88/32/38
f 61/5/38 45/6/38 39/33/38 90/34/38
f 47/6/83 53/7/49 73/8/49 75/5/83
f 53/7/49 59/9/49 67/10/49 73/8/49
f 59/9/49 11/11/49 63/12/49 67/10/49
f 11/11/49 34/13/49 89/14/49 63/12/49
f 34/13/49 52/15/3 85/16/3 89/14/49
f 52/15/3 26/17/3 81/18/3 85/16/3
f 26/17/3 38/19/3 77/20/3 81/18/3
f 38/19/3 5/21/26 62/22/26 77/20/3
f 5/21/26 16/23/26 71/24/26 62/22/26
f 16/23/26 17/25/26 69/26/26 71/24/26
f 17/25/26 23/27/26 65/28/26 69/26/26
f 23/27/26 29/29/83 87/30/83 65/28/26
f 29/29/83 35/31/83 79/32/83 87/30/83
f 35/31/83 41/33/83 83/34/83 79/32/83
f 41/33/83 47/6/83 75/5/83 83/34/83
f 51/36/85 53/35/85 47/1/84 45/4/84
f 57/38/87 59/37/87 53/35/86 51/36/86
f 10/40/89 11/39/89 59/37/88 57/38/88
f 28/42/91 34/41/91 11/39/90 10/40/90
f 46/44/93 52/43/93 34/41/92 28/42/92
f 8/46/95 26/45/95 52/43/94 46/44/94
f 2/48/97 38/47/97 26/45/96 8/46/96
f 3/50/99 5/49/99 38/47/98 2/48/98
f 9/52/101 16/51/101 5/49/100 3/50/100
f 15/54/103 17/53/103 16/51/102 9/52/102
f 21/56/105 23/55/105 17/53/104 15/54/104
f 27/58/107 29/57/107 23/55/106 21/56/106
f 33/60/109 35/59/109 29/57/108 27/58/108
f 39/62/111 41/61/111 35/59/110 33/60/110
f 45/3/113 47/2/113 41/61/112 39/62/112
f 75/1/44 73/35/50 64/36/50 61/4/44
f 73/35/50 67/37/56 66/38/56 64/36/50
f 67/37/56 63/39/61 68/40/61 66/38/56
f 63/39/61 89/41/66 70/42/66 68/40/61
f 89/41/66 85/43/71 72/44/71 70/42/66
f 85/43/71 81/45/76 74/46/76 72/44/71
f 81/45/76 77/47/5 76/48/5 74/46/76
f 77/47/5 62/49/6 78/50/6 76/48/5
f 62/49/6 71/51/11 80/52/11 78/50/6
f 71/51/11 69/53/16 82/54/16 80/52/11
f 69/53/16 65/55/21 84/56/21 82/54/16
f 65/55/21 87/57/28 86/58/28 84/56/21
f 87/57/28 79/59/33 88/60/33 86/58/28
f 79/59/33 83/61/39 90/62/39 88/60/33
f 83/61/39 75/2/44 61/3/44 90/62/39

g Tube
v -0.027850 -0.147392 -0.000000
v -0.089677 -0.474602 -0.000000
v 0.111114 -0.470045 -0.000000
v 0.034507 -0.145977 -0.000000
v 0.292692 -0.384214 -0.000000
v 0.090898 -0.119321 -0.000000
v 0.423662 -0.231948 -0.000000
v 0.131572 -0.072034 -0.000000
v 0.481376 -0.039576 -0.000000
v 0.149496 -0.012291 -0.000000
v 0.455856 0.159638 -0.000000
v 0.141570 0.049577 -0.000000
v 0.351514 0.331250 -0.000000
v 0.109166 0.102873 -0.000000
v 0.186393 0.445586 -0.000000
v 0.057886 0.138381 -0.000000
v -0.010958 0.482876 -0.000000
v -0.003403 0.149961 -0.000000
v -0.206414 0.436672 -0.000000
v -0.064104 0.135612 -0.000000
v -0.366179 0.314963 -0.000000
v -0.113720 0.097815 -0.000000
v -0.462628 0.138795 -0.000000
v -0.143673 0.043104 -0.000000
v -0.479085 -0.061372 -0.000000
v -0.148784 -0.019060 -0.000000
v -0.412704 -0.250928 -0.000000
v -0.128169 -0.077928 -0.000000
v -0.274962 -0.397096 -0.000000
v -0.085392 -0.123322 -0.000000
v -0.027850 -0.147392 0.100000
v 0.034507 -0.145977 0.100000
v 0.111114 -0.470045 0.100000
v -0.089677 -0.474602 0.100000
v 0.090898 -0.119321 0.100000
v 0.292692 -0.384214 0.100000
v 0.131572 -0.072034 0.100000
v 0.423662 -0.231948 0.100000
v 0.149496 -0.012291 0.100000
v 0.481376 -0.039576 0.100000
v 0.141570 0.049577 0.100000
v 0.455856 0.159638 0.100000
v 0.109166 0.102873 0.100000
v 0.351514 0.331250 0.100000
v 0.057886 0.138381 0.100000
v 0.186393 0.445586 0.100000
v -0.003403 0.149961 0.100000
v -0.010958 0.482876 0.100000
v -0.064104 0.135612 0.100000
v -0.206414 0.436672 0.100000
v -0.113720 0.097815 0.100000
v -0.366179 0.314963 0.100000
v -0.143673 0.043104 0.100000
v -0.462628 0.138795 0.100000
v -0.148784 -0.019060 0.100000
v -0.479085 -0.061372 0.100000
v -0.128169 -0.077928 0.100000
v -0.412704 -0.250928 0.100000
v -0.085392 -0.123322 0.100000
v -0.274962 -0.397096 0.100000

vt 0.500000 0.344720
vt 0.500000 0.000000
vt 0.703368 0.043227
vt 0.563158 0.358145
vt 0.871572 0.165435
vt 0.615395 0.396098
vt 0.975528 0.345492
vt 0.647680 0.452016
vt 0.997261 0.552264
vt 0.654429 0.516231
vt 0.933013 0.750000
vt 0.634476 0.577640
vt 0.793893 0.904509
vt 0.591271 0.625624
vt 0.603956 0.989074
vt 0.532284 0.651886
vt 0.396044 0.989074
vt 0.467716 0.651886
vt 0.206107 0.904509
vt 0.408729 0.625624
vt 0.066987 0.750000
vt 0.365524 0.577640
vt 0.002739 0.552264
vt 0.345571 0.516231
vt 0.024472 0.345491
vt 0.352320 0.452016
vt 0.128428 0.165435
vt 0.384605 0.396098
vt 0.296632 0.043227
vt 0.436842 0.358145
vt 0.000000 0.000000
vt 0.000000 1.000000
vt 0.066667 1.000000
vt 0.066667 0.000000
vt 0.133333 1.000000
vt 0.133333 0.000000
vt 0.200000 1.000000
vt 0.200000 0.000000
vt 0.266667 1.000000
vt 0.266667 0.000000
vt 0.333333 1.000000
vt 0.333333 0.000000
vt 0.400000 1.000000
vt 0.400000 0.000000
vt 0.466667 1.000000
vt 0.466667 0.000000
vt 0.533333 1.000000
vt 0.533333 0.000000
vt 0.600000 1.000000
vt 0.600000 0.000000
vt 0.666667 1.000000
vt 0.666667 0.000000
vt 0.733333 1.000000
vt 0.733333 0.000000
vt 0.800000 1.000000
vt 0.800000 0.000000
vt 0.866667 1.000000
vt 0.866667 0.000000
vt 0.933333 1.000000
vt 0.933333 0.000000
vt 1.000000 1.000000
vt 1.000000 0.000000

vn -0.000000 -0.000000 -1.000000
vn 0.000000 0.000000 1.000000
vn -0.185667 -0.982613 0.000000
vn 0.230050 -0.973179 0.000000
vn 0.605988 -0.795473 0.000000
vn 0.877146 -0.480223 0.000000
vn 0.996637 -0.081938 -0.000000
vn 0.943801 0.330514 -0.000000
vn 0.727773 0.685818 -0.000000
vn 0.385906 0.922538 -0.000000
vn -0.022687 0.999743 -0.000000
vn -0.427358 0.904082 -0.000000
vn -0.758134 0.652098 0.000000
vn -0.957823 0.287360 0.000000
vn -0.991894 -0.127065 0.000000
vn -0.854459 -0.519519 0.000000
vn -0.569279 -0.822144 0.000000
vn 0.185667 0.982613 -0.000000
vn -0.230050 0.973179 -0.000000
vn -0.605988 0.795474 -0.000000
vn -0.877146 0.480224 -0.000000
vn -0.996637 0.081938 0.000000
vn -0.943801 -0.330515 0.000000
vn -0.727773 -0.685818 0.000000
vn -0.385906 -0.922538 0.000000
vn 0.022687 -0.999743 0.000000
vn 0.427358 -0.904082 0.000000
vn 0.758134 -0.652098 0.000000
vn 0.957823 -0.287360 0.000000
vn 0.991894 0.127065 -0.000000
vn 0.854459 0.519519 -0.000000
vn 0.569279 0.822144 -0.000000

usemtl default
f 94/66/114 93/65/114 92/64/114 91/63/114
f 96/68/114 95/67/114 93/65/114 94/66/114
f 98/70/114 97/69/114 95/67/114 96/68/114
f 100/72/114 99/71/114 97/69/114 98/70/114
f 102/74/114 101/73/114 99/71/114 100/72/114
f 104/76/114 103/75/114 101/73/114 102/74/114
f 106/78/114 105/77/114 103/75/114 104/76/114
f 108/80/114 107/79/114 105/77/114 106/78/114
f 110/82/114 109/81/114 107/79/114 108/80/114
f 112/84/114 111/83/114 109/81/114 110/82/114
f 114/86/114 113/85/114 111/83/114 112/84/114
f 116/88/114 115/87/114 113/85/114 114/86/114
f 118/90/114 117/89/114 115/87/114 116/88/114
f 120/92/114 119/91/114 117/89/114 118/90/114
f 91/63/114 92/64/114 119/91/114 120/92/114
f 124/64/115 123/65/115 122/66/115 121/63/115
f 123/65/115 126/67/115 125/68/115 122/66/115
f 126/67/115 128/69/115 127/70/115 125/68/115
f 128/69/115 130/71/115 129/72/115 127/70/115
f 130/71/115 132/73/115 131/74/115 129/72/115
f 132/73/115 134/75/115 133/76/115 131/74/115
f 134/75/115 136/77/115 135/78/115 133/76/115
f 136/77/115 138/79/115 137/80/115 135/78/115
f 138/79/115 140/81/115 139/82/115 137/80/115
f 140/81/115 142/83/115 141/84/115 139/82/115
f 142/83/115 144/85/115 143/86/115 141/84/115
f 144/85/115 146/87/115 145/88/115 143/86/115
f 146/87/115 148/89/115 147/90/115 145/88/115
f 148/89/115 150/91/115 149/92/115 147/90/115
f 150/91/115 124/64/115 121/63/115 149/92/115
f 93/96/117 123/95/117 124/94/116 92/93/116
f 95/98/118 126/97/118 123/95/117 93/96/117
f 97/100/119 128/99/119 126/97/118 95/98/118
f 99/102/120 130/101/120 128/99/119 97/100/119
f 101/104/121 132/103/121 130/101/120 99/102/120
f 103/106/122 134/105/122 132/103/121 101/104/121
f 105/108/123 136/107/123 134/105/122 103/106/122
f 107/110/124 138/109/124 136/107/123 105/108/123
f 109/112/125 140/111/125 138/109/124 107/110/124
f 111/114/126 142/113/126 140/111/125 109/112/125
f 113/116/127 144/115/127 142/113/126 111/114/126
f 115/118/128 146/117/128 144/115/127 113/116/127
f 117/120/129 148/119/129 146/117/128 115/118/128
f 119/122/130 150/121/130 148/119/129 117/120/129
f 92/124/116 124/123/116 150/121/130 119/122/130
f 121/94/131 122/95/132 94/96/132 91/93/131
f 122/95/132 125/97/133 96/98/133 94/96/132
f 125/97/133 127/99/134 98/100/134 96/98/133
f 127/99/134 129/101/135 100/102/135 98/100/134
f 129/101/135 131/103/136 102/104/136 100/102/135
f 131/103/136 133/105/137 104/106/137 102/104/136
f 133/105/137 135/107/138 106/108/138 104/106/137
f 135/107/138 137/109/139 108/110/139 106/108/138
f 137/109/139 139/111/140 110/112/140 108/110/139
f 139/111/140 141/113/141 112/114/141 110/112/140
f 141/113/141 143/115/142 114/116/142 112/114/141
f 143/115/142 145/117/143 116/118/143 114/116/142
f 145/117/143 147/119/144 118/120/144 116/118/143
f 147/119/144 149/121/145 120/122/145 118/120/144
f 149/121/145 121/123/131 91/124/131 120/122/145

